<?xml version="1.0" standalone="no"?><!DOCTYPE svg PUBLIC "-//W3C//DTD SVG 1.1//EN" "http://www.w3.org/Graphics/SVG/1.1/DTD/svg11.dtd"><svg t="1572593287517" class="icon" viewBox="0 0 1024 1024" version="1.1" xmlns="http://www.w3.org/2000/svg" p-id="18105" xmlns:xlink="http://www.w3.org/1999/xlink" width="200" height="200"><defs><style type="text/css"></style></defs><path d="M891.392 901.12c-8.192 0-15.872-3.072-21.504-9.216L128 151.04c-11.776-11.776-11.776-31.744 0-43.52s31.744-11.776 43.52 0l741.376 741.376c11.776 12.288 11.776 31.744-0.512 43.52-5.632 5.632-13.312 8.704-20.992 8.704" p-id="18106" fill="#ffffff"></path><path d="M150.016 901.12c-16.896 0-30.72-13.824-30.72-30.72 0-8.192 3.072-16.384 9.216-22.016L869.376 107.52c12.8-11.264 32.256-10.752 43.52 2.048 10.752 11.776 10.752 29.696 0 41.472L171.52 892.416c-5.632 5.632-13.312 8.704-21.504 8.704" p-id="18107" fill="#ffffff"></path></svg>